<svg xmlns="http://www.w3.org/2000/svg" width="232" height="285" viewBox="48 48 232 285" version="1.1">
	<path d="M 135 59 C 132.844 61.200, 130.611 63, 130.038 63 C 129.466 63, 122.701 69.412, 115.005 77.250 C 107.309 85.088, 100.251 92.175, 99.320 93 C 98.389 93.825, 96.699 95.558, 95.564 96.851 C 94.429 98.144, 92.645 99.944, 91.600 100.851 C 90.555 101.758, 89.079 103.175, 88.321 104 C 87.563 104.825, 77.730 114.858, 66.471 126.296 C 55.212 137.733, 46 147.496, 46 147.989 C 46 148.483, 44.654 149.682, 43.008 150.654 C 38.080 153.565, 36.070 165.190, 38.059 179.269 C 39.298 188.038, 38.645 186.951, 49 197.491 C 50.375 198.890, 52.175 200.725, 53 201.568 C 53.825 202.412, 55.850 204.427, 57.500 206.048 C 59.150 207.668, 60.950 209.490, 61.500 210.096 C 62.050 210.702, 63.850 212.502, 65.500 214.096 C 67.150 215.690, 68.950 217.490, 69.500 218.096 C 70.050 218.702, 71.850 220.502, 73.500 222.096 C 75.150 223.690, 76.950 225.490, 77.500 226.096 C 78.050 226.702, 79.850 228.502, 81.500 230.096 C 83.150 231.690, 84.950 233.490, 85.500 234.096 C 86.050 234.702, 87.850 236.502, 89.500 238.096 C 91.150 239.690, 92.828 241.333, 93.229 241.747 C 111.616 260.740, 130.765 279.344, 133.247 280.628 C 135.036 281.553, 137.693 283.192, 139.152 284.270 C 143.433 287.436, 150.857 286.945, 156.640 283.115 C 159.226 281.402, 161.862 280, 162.497 280 C 165.091 280, 168 275.383, 168 271.267 C 168 261.068, 169.013 261.304, 182.372 274.613 C 184.642 276.875, 188.075 279.253, 190 279.897 C 191.925 280.541, 195.300 282.277, 197.500 283.754 C 202.855 287.349, 209.733 287.244, 214.183 283.499 C 215.865 282.084, 218.650 280.326, 220.371 279.593 C 224.700 277.749, 260.090 242.126, 263.381 236.300 C 264.596 234.150, 264.829 216.051, 263.710 210.779 C 262.656 205.815, 258.808 201.443, 252.823 198.410 C 250.119 197.040, 247.670 195.303, 247.381 194.551 C 245.633 189.996, 228.218 189.835, 224.500 194.338 C 223.400 195.671, 221.150 197.473, 219.500 198.342 C 217.850 199.211, 214.361 202.078, 211.746 204.711 C 181.494 235.185, 182 234.604, 182 238.865 C 182 241.074, 181.573 243.146, 181.051 243.468 C 179.932 244.160, 115.153 179.140, 113.148 175.312 C 112.318 173.728, 111.985 171.145, 112.305 168.761 C 112.890 164.399, 110.542 166.971, 152.643 124.574 C 165.372 111.755, 176.315 100.280, 176.961 99.073 C 179.286 94.729, 182.500 96.742, 182.500 102.541 L 182.500 107.583 200.775 125.791 C 210.827 135.806, 219.833 144, 220.790 144 C 221.747 144, 225.367 145.384, 228.835 147.076 C 235.225 150.193, 241.941 150.523, 243.623 147.801 C 243.971 147.238, 246.561 145.744, 249.378 144.482 C 256.935 141.096, 263.102 134.316, 264.090 128.310 C 266.761 112.063, 264.508 103.487, 254.751 92.762 C 242.557 79.360, 227.479 64.938, 222.829 62.231 C 220.448 60.844, 217.516 58.823, 216.312 57.739 C 211.618 53.511, 198.012 54.275, 192.771 59.062 C 191.002 60.678, 189.164 62, 188.688 62 C 187.677 62, 176.428 72.585, 172.505 77.227 C 169.850 80.370, 167.850 78.315, 168.019 72.618 C 168.242 65.102, 168.273 65.190, 164.750 63.399 C 162.963 62.490, 160.089 60.229, 158.365 58.373 C 155.299 55.074, 155.051 55, 147.076 55 L 138.921 55 135 59 M 145.833 75.919 C 145.650 76.424, 143.475 77.892, 141 79.180 C 133.193 83.242, 135.330 88.384, 144.096 86.631 C 147.327 85.985, 152 89.364, 152 92.348 C 152 94.996, 155.351 95.289, 157.295 92.811 C 160.077 89.263, 161.569 87.691, 164.397 85.327 C 168.521 81.880, 166.945 80.279, 158.984 79.829 C 153.591 79.525, 151.585 78.959, 149.734 77.220 C 147.150 74.792, 146.340 74.522, 145.833 75.919 M 198.839 79.022 C 193.588 81.797, 184.785 90.645, 185.189 92.744 C 185.880 96.333, 197.517 95.400, 198.947 91.640 C 200.940 86.398, 206.219 85.816, 208.052 90.636 C 208.580 92.025, 210.314 93.562, 212.026 94.159 C 214.005 94.849, 215.547 96.373, 216.447 98.528 C 217.358 100.709, 218.628 101.952, 220.165 102.169 C 221.640 102.378, 223.052 103.685, 224 105.717 C 224.858 107.558, 226.683 109.356, 228.265 109.920 C 233.118 111.651, 233.751 119, 229.047 119 C 224.112 119, 222.548 121.738, 225.573 125.081 C 227.225 126.907, 231.642 126.372, 234.500 124 C 235.389 123.262, 235.916 123.248, 236.153 123.957 C 236.344 124.529, 237.987 125.423, 239.804 125.944 C 244.320 127.239, 247.208 124.541, 246.413 119.771 C 245.214 112.571, 244.902 111.991, 241.234 110.106 C 237.809 108.347, 216.681 87.969, 214.804 84.614 C 213.973 83.129, 204.552 76.965, 203.235 77.044 C 202.831 77.069, 200.853 77.959, 198.839 79.022 M 125.358 93.447 C 122.530 96.360, 119.924 99.664, 119.567 100.789 C 119.210 101.913, 117.569 103.303, 115.921 103.878 C 114.014 104.543, 112.558 105.970, 111.920 107.799 C 111.316 109.532, 109.654 111.235, 107.736 112.087 C 105.824 112.937, 104.336 114.459, 104.005 115.905 C 103.504 118.093, 102.580 118.880, 98 121.015 C 97.175 121.399, 96.272 123.016, 95.994 124.607 C 95.618 126.755, 94.845 127.589, 92.994 127.846 C 89.541 128.325, 88 129.818, 88 132.686 C 88 136.682, 94.169 135.622, 95.411 131.411 C 96.068 129.185, 97.185 128.068, 99.411 127.411 C 101.686 126.740, 102.752 125.643, 103.457 123.250 C 104.129 120.965, 105.021 119.995, 106.457 119.985 C 109.243 119.964, 110.447 119.015, 112.096 115.542 C 112.915 113.816, 114.541 112.350, 116 112.021 C 117.528 111.677, 119.083 110.211, 120 108.251 C 121.406 105.244, 121.828 105.042, 126.750 105.022 C 129.637 105.010, 132 105.439, 132 105.976 C 132 106.721, 105.701 133.091, 90.837 147.250 C 89.827 148.213, 89 149.473, 89 150.051 C 89 150.629, 87.409 151.767, 85.465 152.579 C 83.423 153.432, 81.525 155.120, 80.972 156.573 C 80.446 157.958, 78.626 159.674, 76.928 160.388 C 75.230 161.102, 73.304 162.769, 72.648 164.093 C 70.800 167.821, 65.647 167.940, 63.335 164.309 C 59.568 158.393, 56 160.169, 56 167.959 C 56 174.569, 59.509 179.561, 75.942 196.333 C 83.577 204.125, 96.832 217.700, 105.398 226.500 C 113.964 235.300, 124.281 245.875, 128.325 250 C 132.369 254.125, 136.172 258.430, 136.776 259.567 C 138.187 262.221, 146.030 264.139, 150.377 262.892 C 152.087 262.401, 155.987 262, 159.043 262 C 166.850 262, 168.010 260.462, 163.561 256.013 C 161.628 254.081, 154.974 247.428, 148.774 241.228 C 142.573 235.028, 137.050 229.489, 136.500 228.918 C 135.950 228.348, 128.750 221.154, 120.500 212.933 C 112.250 204.712, 105.050 197.496, 104.500 196.898 C 103.950 196.300, 101.629 193.886, 99.343 191.534 C 94.463 186.511, 93.657 182.132, 94.187 163.511 C 94.499 152.547, 94.506 152.520, 97.342 151.163 C 98.905 150.415, 101.061 148.316, 102.133 146.500 C 103.205 144.683, 105.218 142.911, 106.607 142.563 C 108.215 142.159, 109.640 140.713, 110.530 138.582 C 111.438 136.409, 112.842 135.006, 114.530 134.582 C 116.219 134.158, 117.623 132.754, 118.530 130.582 C 119.438 128.409, 120.842 127.006, 122.530 126.582 C 124.243 126.152, 125.626 124.746, 126.579 122.464 C 127.554 120.133, 128.687 119, 130.047 119 C 131.305 119, 132.865 117.648, 134.180 115.420 C 135.342 113.450, 137.328 111.446, 138.594 110.964 C 139.860 110.483, 141.696 108.832, 142.674 107.295 C 143.652 105.758, 145.076 104.112, 145.839 103.637 C 152.723 99.354, 151.937 96, 144.048 96 C 137.968 96, 135.926 94.764, 134.551 90.250 C 133.495 86.785, 130.974 87.661, 125.358 93.447 M 201.250 95.662 C 199.509 96.365, 199.690 99, 201.626 101.139 C 203.616 103.338, 207 101.991, 207 99 C 207 97.440, 204.130 94.750, 202.816 95.079 C 202.642 95.122, 201.938 95.385, 201.250 95.662 M 209.347 104.510 C 207.878 105.602, 207.726 106.253, 208.607 107.691 C 210.884 111.410, 215.823 110.167, 214.561 106.193 C 213.710 103.510, 211.606 102.831, 209.347 104.510 M 216.330 113.583 C 215.983 114.487, 216.550 115.995, 217.652 117.096 C 220.213 119.657, 223.646 117.611, 222.555 114.174 C 221.732 111.579, 217.262 111.155, 216.330 113.583 M 360.856 135.907 C 355.506 137.654, 344.417 143.431, 341.618 145.929 C 339.772 147.576, 338.582 148.074, 338.307 147.315 C 338.070 146.663, 336.552 144.300, 334.932 142.065 L 331.987 138 323.462 138 C 318.369 138, 313.571 138.570, 311.546 139.416 C 304.644 142.300, 304.956 138.953, 305.242 207.073 L 305.500 268.473 308.500 269.939 C 313.042 272.158, 330.331 272.668, 333.376 270.673 L 335.755 269.114 336.185 228.807 C 336.661 184.091, 336.333 186.347, 343.784 176.514 C 350.412 167.769, 353.161 166.776, 369 167.415 C 376.425 167.715, 383.493 168.241, 384.708 168.585 C 386.496 169.092, 388.157 167.938, 393.458 162.506 C 399.653 156.156, 400 155.549, 400 151.055 C 400 145.951, 398.522 143.841, 394 142.489 C 392.625 142.078, 388.903 140.399, 385.730 138.759 C 379.539 135.559, 366.498 134.063, 360.856 135.907 M 459.500 136.649 C 455.650 137.466, 451.600 138.711, 450.500 139.414 C 449.400 140.117, 446.138 141.473, 443.250 142.427 C 435.800 144.887, 417.767 162.034, 414.252 170 C 412.917 173.025, 411.119 176.289, 410.255 177.252 C 404.183 184.032, 404.636 224.974, 410.883 233.873 C 411.897 235.318, 413.636 238.525, 414.748 241 C 417.542 247.222, 431.596 261.469, 437.390 263.953 C 439.906 265.031, 443.272 266.880, 444.870 268.062 C 454.591 275.249, 497.310 275.322, 506.986 268.168 C 508.403 267.121, 511.348 265.336, 513.531 264.201 C 517.553 262.111, 526 253.124, 526 250.936 C 526 250.279, 524.425 247.999, 522.500 245.868 C 520.575 243.738, 519 241.634, 519 241.194 C 519 240.754, 516.296 238.487, 512.990 236.156 L 506.981 231.918 504.686 234.394 C 496.699 243.012, 471.759 247.973, 462.789 242.728 C 460.430 241.349, 456.562 239.642, 454.193 238.935 C 451.393 238.099, 449.146 236.574, 447.771 234.575 C 446.607 232.884, 444.632 230.600, 443.382 229.500 C 440.040 226.558, 439.045 218.582, 441.834 217.089 C 443.214 216.350, 458.206 216, 488.411 216 L 532.954 216 534.471 213.685 C 536.811 210.114, 537.282 203.560, 536.101 191.029 C 535.090 180.307, 534.710 178.957, 530.282 170.329 C 523.450 157.018, 513.151 146.907, 501.490 142.061 C 498.745 140.920, 495.315 139.321, 493.867 138.506 C 487.843 135.118, 471.001 134.208, 459.500 136.649 M 604 136.500 C 596.473 138.207, 586.038 143.054, 581 147.182 C 571.857 154.673, 568.711 157.732, 567.305 160.500 C 566.466 162.150, 564.314 165.075, 562.522 167 C 560.542 169.127, 558.801 172.416, 558.084 175.384 C 557.435 178.071, 555.913 182.121, 554.702 184.384 C 551.299 190.745, 551.386 219.110, 554.831 226.500 C 556.113 229.250, 557.977 234.082, 558.973 237.239 C 559.968 240.395, 562.070 244.586, 563.642 246.551 C 571.129 255.912, 577.674 262.175, 582.396 264.496 C 585.203 265.876, 588.856 267.883, 590.513 268.956 C 597.143 273.249, 614.867 274.889, 629.215 272.536 C 638.249 271.055, 639.642 270.540, 645.675 266.446 C 650.403 263.237, 652.509 263.360, 654.641 266.969 C 657.016 270.990, 657.769 271.207, 671.302 271.764 C 682.577 272.229, 683.214 272.147, 685.552 269.951 L 688 267.651 687.978 207.076 C 687.957 148.903, 687.878 146.327, 685.980 142.145 L 684.003 137.789 671.894 138.147 L 659.785 138.504 655.506 143.437 L 651.227 148.369 648.139 145.770 C 646.440 144.341, 643.352 142.619, 641.275 141.944 C 639.199 141.269, 635.456 139.657, 632.958 138.362 C 626.964 135.255, 613.346 134.379, 604 136.500 M 753.726 135.998 C 743.914 137.730, 731.936 143.771, 726.227 149.869 C 720.259 156.242, 719.292 158.066, 717.409 166.500 C 713.337 184.745, 719.831 201.573, 733.350 207.808 C 736.103 209.078, 739.598 211.002, 741.118 212.084 C 742.637 213.166, 748.006 214.933, 753.047 216.010 C 758.089 217.087, 763.628 218.833, 765.357 219.889 C 767.086 220.945, 770.920 222.520, 773.879 223.389 C 780.862 225.440, 781.772 226.294, 782.558 231.540 C 783.407 237.198, 780.648 241.953, 775.053 244.476 C 770.249 246.642, 753.195 246.276, 748.861 243.913 C 747.435 243.136, 743.846 241.213, 740.884 239.640 C 737.923 238.067, 734.505 235.867, 733.289 234.752 C 729.767 231.522, 724.688 232.906, 718.740 238.717 C 713.613 243.725, 711 247.736, 711 250.600 C 711 253.067, 720.623 261.910, 725.655 264.067 C 728.025 265.082, 731.272 266.880, 732.870 268.062 C 743.207 275.705, 782.594 275.404, 793.861 267.596 C 801.447 262.339, 805.667 258.101, 808.071 253.325 C 809.407 250.671, 811.239 247.374, 812.141 245.998 C 814.316 242.684, 815.451 229.801, 814.095 223.845 C 812.038 214.817, 800.988 201.543, 792.900 198.386 C 790.480 197.442, 787.375 195.906, 786 194.973 C 782.864 192.846, 778.292 191.411, 770.069 189.972 C 757.595 187.789, 748.259 181.347, 747.309 174.268 C 746.785 170.357, 746.804 170.331, 751.827 168.170 C 760.093 164.614, 778.449 165.573, 783.812 169.841 C 794.601 178.427, 795.431 178.381, 805.502 168.626 C 810.607 163.682, 811 162.971, 811 158.673 C 811 154.192, 810.792 153.872, 804.496 148.679 C 800.918 145.728, 796.081 142.747, 793.746 142.054 C 791.411 141.361, 787.250 139.759, 784.500 138.493 C 778.809 135.873, 762.108 134.519, 753.726 135.998 M 1038.221 135.996 C 1035.867 136.496, 1032.717 137.760, 1031.221 138.803 C 1024.631 143.399, 1012.469 145.475, 1009.945 142.434 C 1007.246 139.182, 1003.171 138, 994.653 138 C 986.237 138, 986.196 138.012, 983.104 141.535 L 980 145.070 980 206.549 L 980 268.029 983.250 270.011 C 987.793 272.781, 1001.663 272.790, 1007.750 270.027 L 1012 268.098 1012 228.320 L 1012 188.542 1014.586 181.776 C 1019.168 169.783, 1024.080 167, 1040.657 167 C 1054.258 167, 1060.866 170.864, 1064.024 180.664 C 1064.704 182.774, 1065.765 185.131, 1066.380 185.902 C 1067.153 186.870, 1067.597 199.831, 1067.812 227.705 L 1068.124 268.105 1071.312 270.098 C 1074.032 271.799, 1075.917 272.048, 1084.147 271.796 C 1099.063 271.338, 1097.764 275.358, 1098.252 228.167 L 1098.662 188.500 1102.581 181.065 C 1108.657 169.538, 1111.661 167.637, 1124.555 167.160 C 1130.289 166.948, 1136.587 167.075, 1138.550 167.443 C 1143.441 168.361, 1149.505 174.102, 1151.614 179.814 C 1152.566 182.391, 1153.829 185.131, 1154.422 185.902 C 1155.139 186.835, 1155.604 200.825, 1155.812 227.705 L 1156.124 268.105 1159.312 270.098 C 1162.032 271.799, 1163.917 272.048, 1172.147 271.796 C 1187.367 271.329, 1186.006 276.172, 1185.966 222.595 C 1185.921 163.464, 1186.177 164.666, 1170.245 148.764 C 1167.635 146.159, 1164.600 143.744, 1163.500 143.397 C 1162.400 143.051, 1158.350 141.277, 1154.500 139.456 C 1138.276 131.782, 1113.388 135.491, 1101.336 147.379 C 1099.595 149.096, 1096.606 151.740, 1094.693 153.255 L 1091.214 156.010 1084.928 150.010 C 1080.884 146.149, 1076.818 143.327, 1073.526 142.096 C 1070.712 141.043, 1066.607 139.242, 1064.405 138.094 C 1059.761 135.673, 1045.218 134.508, 1038.221 135.996 M 1266.134 136.137 C 1262.633 136.649, 1258.397 137.778, 1256.721 138.644 C 1255.045 139.511, 1251.235 141.059, 1248.253 142.085 C 1241.960 144.250, 1238.479 146.830, 1228.649 156.618 C 1219.244 165.982, 1217.455 168.509, 1213.318 178.279 C 1208.209 190.348, 1208 191.377, 1208 204.525 C 1208 217.535, 1208.904 222.047, 1213.865 233.783 C 1218.462 244.662, 1231.947 260.054, 1240.500 264.187 C 1242.700 265.250, 1245.944 267.160, 1247.708 268.432 C 1254.010 272.974, 1276.467 274.986, 1293.447 272.529 C 1305.996 270.714, 1309.373 269.824, 1310.474 268.043 C 1310.841 267.448, 1313.265 265.886, 1315.861 264.570 C 1321.018 261.957, 1329 253.988, 1329 251.453 C 1329 249.293, 1324.065 242.350, 1319.171 237.624 C 1314.562 233.173, 1311.692 233.146, 1303.129 237.477 C 1290.703 243.761, 1288.722 244.346, 1278.409 244.785 L 1268.318 245.215 1260.909 241.086 C 1250.970 235.546, 1242 225.070, 1242 219 C 1242 216.724, 1254.209 216, 1292.599 216 C 1336.166 216, 1337.397 215.865, 1340.124 210.769 C 1342.158 206.968, 1341.392 194.084, 1338.667 186.286 C 1337.325 182.443, 1335.908 177.416, 1335.519 175.115 C 1335.131 172.814, 1333.793 169.709, 1332.547 168.215 C 1331.301 166.722, 1329.563 164.098, 1328.684 162.384 C 1326.357 157.843, 1313.233 146.022, 1308 143.753 C 1305.525 142.680, 1300.800 140.543, 1297.500 139.004 C 1290.557 135.766, 1277.083 134.535, 1266.134 136.137 M 81.040 137.452 C 79.410 139.416, 80.115 142.399, 82.310 142.821 C 84.793 143.299, 87 141.209, 87 138.378 C 87 135.600, 83.082 134.992, 81.040 137.452 M 837.921 141.844 L 834 145.765 834 182.275 L 834 218.785 837.066 231.642 C 839.241 240.766, 840.805 245.226, 842.451 247 C 843.728 248.375, 845.461 250.850, 846.303 252.500 C 848.372 256.552, 854.718 262.546, 859 264.495 C 860.925 265.371, 863.956 267.143, 865.736 268.434 C 873.582 274.126, 898.991 275.403, 916 270.960 C 924.555 268.726, 941.100 253.262, 943.825 244.954 C 944.628 242.504, 946.104 239.330, 947.104 237.900 C 950.510 233.031, 950.951 227.136, 950.976 186.151 C 951.006 135.451, 951.874 138.044, 934.875 138.011 C 918.761 137.979, 919.609 135.446, 919 185.453 C 918.564 221.260, 918.287 226.883, 916.835 229.500 C 912.765 236.836, 902.349 243.571, 893.500 244.590 C 889.059 245.101, 887.663 244.733, 881.019 241.304 C 873.811 237.585, 873.415 237.190, 870.179 230.494 C 865.422 220.650, 865.012 216.563, 865.006 178.898 C 865 145.554, 864.982 145.270, 862.713 141.898 L 860.427 138.500 851.134 138.211 L 841.842 137.923 837.921 141.844 M 73.040 145.452 C 71.157 147.721, 72.184 150.500, 74.905 150.500 C 77.658 150.500, 79.600 148.005, 78.691 145.636 C 77.913 143.609, 74.657 143.503, 73.040 145.452 M 65.238 153.162 C 63.603 154.797, 63.673 156.483, 65.436 157.947 C 67.575 159.722, 71.214 157.512, 70.811 154.682 C 70.455 152.182, 67.127 151.273, 65.238 153.162 M 461.903 167.013 C 455.652 168.070, 452.326 169.984, 446.858 175.672 C 440.175 182.622, 438.319 186.590, 440.582 189.091 C 443.157 191.936, 498.486 192.046, 501.985 189.213 C 507.688 184.595, 497.054 169.928, 486.141 167.359 C 480.041 165.923, 469.255 165.769, 461.903 167.013 M 1262.668 167.411 C 1256.381 168.859, 1250.289 173.653, 1247.303 179.500 C 1246.461 181.150, 1244.681 183.668, 1243.347 185.095 C 1238.617 190.158, 1240.631 190.500, 1275.117 190.500 C 1311.775 190.500, 1311.229 190.654, 1305.599 181.919 C 1300.467 173.956, 1297.093 170.099, 1293.740 168.366 C 1289.600 166.225, 1270.377 165.634, 1262.668 167.411 M 607.605 168.115 C 605.463 168.618, 601.974 170.597, 599.852 172.514 C 597.730 174.432, 595.574 176, 595.060 176 C 594.547 176, 591.978 180.387, 589.351 185.750 C 584.581 195.490, 584.576 195.511, 584.555 206 C 584.534 216.348, 584.590 216.601, 588.420 223.500 C 596.398 237.870, 606.508 244.372, 621 244.453 C 631.657 244.512, 643.236 239.599, 647.507 233.205 C 648.868 231.167, 650.892 228.371, 652.006 226.991 C 657.170 220.592, 658.161 193.705, 653.545 185.234 C 649.789 178.339, 639.820 169.877, 633.333 168.075 C 628.759 166.805, 613.083 166.829, 607.605 168.115 M 233.321 211.882 C 233.050 212.917, 231.037 214.468, 228.848 215.328 C 226.117 216.400, 224.524 217.801, 223.775 219.786 C 223.130 221.494, 221.506 223.125, 219.816 223.763 C 218.038 224.434, 216.552 225.987, 215.902 227.850 C 215.224 229.796, 213.810 231.219, 211.889 231.889 C 210.013 232.543, 208.554 233.980, 207.920 235.799 C 207.319 237.524, 205.651 239.240, 203.752 240.087 C 201.531 241.078, 200.341 242.470, 199.765 244.750 C 198.979 247.857, 198.729 248, 194.094 248 C 186.655 248, 186.149 249.680, 191.775 255.700 C 198.155 262.527, 201.395 264.064, 207.551 263.183 C 211.644 262.598, 212.809 261.923, 214.783 258.993 C 216.076 257.072, 218.044 255.163, 219.154 254.750 C 220.265 254.338, 221.677 252.666, 222.292 251.036 C 222.934 249.337, 224.624 247.570, 226.253 246.895 C 227.816 246.248, 229.770 244.412, 230.595 242.816 C 231.420 241.220, 233.240 239.479, 234.638 238.947 C 236.055 238.409, 237.688 236.639, 238.325 234.951 C 238.995 233.175, 240.416 231.683, 241.758 231.346 C 248.410 229.676, 248.733 215, 242.118 215 C 241.145 215, 239.292 213.875, 238 212.500 C 235.193 209.512, 233.982 209.352, 233.321 211.882 M 229.510 224.892 C 226.578 225.339, 225.422 226.031, 225.152 227.500 C 224.615 230.424, 223.217 231.793, 220.061 232.487 C 218.016 232.936, 217.017 233.949, 216.359 236.243 C 215.693 238.566, 214.667 239.589, 212.419 240.171 C 210.329 240.713, 208.928 241.982, 207.939 244.230 C 206.800 246.818, 205.822 247.565, 203.250 247.813 C 199.907 248.136, 199.060 249.967, 200.906 252.882 C 202.840 255.935, 208.205 253.285, 216.647 245.107 C 221.128 240.766, 225.414 236.829, 226.171 236.357 C 226.928 235.886, 228.348 234.242, 229.326 232.705 C 230.304 231.168, 232.206 229.492, 233.552 228.980 C 236.077 228.020, 237.103 223.875, 234.750 224.142 C 234.063 224.220, 231.704 224.557, 229.510 224.892" stroke="none" fill="#ffffff" fill-rule="evenodd"/>
</svg>